HIERARCHY
ROOT Hips
{
	OFFSET 0.000000 8.830580 0.000000
	CHANNELS 6 Xposition Yposition Zposition Zrotation Yrotation Xrotation 
	JOINT Spine
	{
		OFFSET 0.000000 0.010000 0.000000
		CHANNELS 3 Zrotation Yrotation Xrotation
		JOINT Spine1
		{
			OFFSET 0.000000 2.459130 0.000000
			CHANNELS 3 Zrotation Yrotation Xrotation
			JOINT Neck
			{
				OFFSET 0.000000 2.484630 0.000000
				CHANNELS 3 Zrotation Yrotation Xrotation
				JOINT Head_virtual
				{
					OFFSET 0.000000 0.000000 0.000000
					CHANNELS 3 Zrotation Yrotation Xrotation
					JOINT Head
					{
						OFFSET 0.000000 0.927525 0.000000
						CHANNELS 3 Zrotation Yrotation Xrotation
						End Site
						{
							OFFSET 0.000000 0.000000 0.000000
						}
					}
				}
				JOINT LeftUpArm_virtual
				{
					OFFSET 0.000000 0.000000 0.000000
					CHANNELS 3 Zrotation Yrotation Xrotation
					JOINT LeftUpArm
					{
						OFFSET 1.248820 0.000000 0.000000
						CHANNELS 3 Zrotation Yrotation Xrotation
						JOINT LeftForeArm
						{
							OFFSET 2.597580 0.000000 0.000000
							CHANNELS 3 Zrotation Yrotation Xrotation
							JOINT LeftHand
							{
								OFFSET 2.455420 0.000000 0.000000
								CHANNELS 3 Zrotation Yrotation Xrotation
								End Site
								{
									OFFSET 0.000000 0.000000 0.000000
								}
							}
						}
					}
				}
				JOINT RightUpArm_virtual
				{
					OFFSET -0.000000 -0.000000 -0.000000
					CHANNELS 3 Zrotation Yrotation Xrotation
					JOINT RightUpArm
					{
						OFFSET -1.248820 -0.000000 -0.000000
						CHANNELS 3 Zrotation Yrotation Xrotation
						JOINT RightForeArm
						{
							OFFSET -2.597580 -0.000000 -0.000000
							CHANNELS 3 Zrotation Yrotation Xrotation
							JOINT RightHand
							{
								OFFSET -2.455420 -0.000000 -0.000000
								CHANNELS 3 Zrotation Yrotation Xrotation
								End Site
								{
									OFFSET 0.000000 0.000000 0.000000
								}
							}
						}
					}
				}
			}
		}
	}
	JOINT LeftUpLeg
	{
		OFFSET 1.271939 0.000000 0.000000
		CHANNELS 3 Zrotation Yrotation Xrotation
		JOINT LeftLowLeg
		{
			OFFSET 0.000000 -4.342910 0.000000
			CHANNELS 3 Zrotation Yrotation Xrotation
			JOINT LeftFoot
			{
				OFFSET 0.000000 -4.487670 0.000000
				CHANNELS 3 Zrotation Yrotation Xrotation
				JOINT LeftToeBase
				{
					OFFSET 0.000000 0.000000 1.515070
					CHANNELS 3 Zrotation Yrotation Xrotation
					End Site
					{
						OFFSET 0.000000 0.000000 0.000000
					}
				}
			}
		}
	}
	JOINT RightUpLeg
	{
		OFFSET -1.271939 0.000000 0.000000
		CHANNELS 3 Zrotation Yrotation Xrotation
		JOINT RightLowLeg
		{
			OFFSET 0.000000 -4.342910 0.000000
			CHANNELS 3 Zrotation Yrotation Xrotation
			JOINT RightFoot
			{
				OFFSET 0.000000 -4.487670 0.000000
				CHANNELS 3 Zrotation Yrotation Xrotation
				JOINT RightToeBase
				{
					OFFSET 0.000000 0.000000 1.515070
					CHANNELS 3 Zrotation Yrotation Xrotation
					End Site
					{
						OFFSET 0.000000 0.000000 0.000000
					}
				}
			}
		}
	}
}
MOTION
Frames: 11
Frame Time: 0.041667
-21.459022 9.268279 44.150443 -172.094124 14.680716 179.100706 8.008282 0.368198 -22.983902 -5.323312 -0.467821 34.245101 0.000000 0.000000 0.000000 -16.634830 11.080360 -1.417562 -8.319932 13.437040 -60.340927 -27.217400 0.533101 -9.437920 -36.566502 7.204130 29.499300 0.000000 -24.515100 0.000000 5.894820 8.794840 -1.224150 30.419901 -0.221839 -4.772470 41.333900 1.038900 22.404400 0.000000 25.742701 0.000000 -5.033910 -1.289360 -9.866240 11.072494 16.330000 12.752285 0.000000 0.000000 2.308020 -8.590401 8.465357 5.342938 0.000000 0.000000 -10.507780 11.010891 13.051093 7.964658 0.000000 0.000000 7.099860 14.438328 -21.944795 10.014274 0.000000 0.000000 -13.227200 
-21.463441 9.268287 44.147634 -172.122416 14.496950 179.053789 7.960634 0.318254 -23.038977 -5.152283 -0.410566 34.217900 0.000000 0.000000 0.000000 -16.554463 10.935142 -1.544399 -8.023445 13.245574 -60.445488 -27.276899 0.492346 -9.330000 -36.563301 6.929490 29.684401 0.000000 -25.132401 0.000000 5.833570 8.973130 -1.830260 30.324200 -0.145771 -4.766490 41.465000 1.055720 22.572399 0.000000 25.577200 0.000000 -4.848560 -1.322730 -9.554620 11.017723 16.182611 12.768645 0.000000 0.000000 2.251310 -8.554406 8.442084 5.377364 0.000000 0.000000 -10.493300 10.985482 12.982682 8.003669 0.000000 0.000000 7.118200 14.510948 -22.030803 9.937293 0.000000 0.000000 -13.228430 
-21.468747 9.268259 44.145382 -172.138746 14.295982 178.987661 7.933599 0.295980 -23.089426 -4.977432 -0.340020 34.248085 0.000000 0.000000 0.000000 -16.465049 10.745251 -1.725180 -7.739092 13.006476 -60.544015 -27.356701 0.361980 -9.357900 -36.516899 6.612620 30.127300 0.000000 -25.669300 0.000000 5.990380 9.006850 -2.121560 30.198299 -0.056182 -4.698370 41.597698 1.116690 22.808100 0.000000 25.421000 0.000000 -4.555290 -1.451110 -9.137780 10.928954 15.828075 12.750722 0.000000 0.000000 2.273930 -8.539692 8.579816 5.332466 0.000000 0.000000 -10.462640 10.975442 12.916215 8.050555 0.000000 0.000000 7.156010 14.574980 -22.136948 9.861014 0.000000 0.000000 -13.194390 
-21.475222 9.268695 44.143359 -172.185277 14.028415 178.897219 7.939026 0.338268 -23.138927 -5.008526 -0.310358 34.310773 0.000000 0.000000 0.000000 -16.297229 10.563472 -1.999596 -7.400792 12.830514 -60.578113 -27.372900 0.230563 -9.381170 -36.427601 6.156610 30.687500 0.000000 -26.158199 0.000000 6.310680 8.959280 -2.335890 30.190001 0.030323 -4.601080 41.695099 1.215120 23.046000 0.000000 25.269600 0.000000 -4.343380 -1.236460 -9.062160 10.891718 15.790674 12.793618 0.000000 0.000000 2.190210 -8.451263 8.390692 5.433391 0.000000 0.000000 -10.464040 10.948531 12.862210 8.124114 0.000000 0.000000 7.175040 14.664826 -22.318448 9.754643 0.000000 0.000000 -13.179370 
-21.482674 9.268580 44.142812 -172.236289 13.720496 178.827584 7.961965 0.413444 -23.183039 -5.096959 -0.290663 34.353005 0.000000 0.000000 0.000000 -16.056988 10.327138 -2.229347 -7.136293 12.686663 -60.658924 -27.388399 0.014766 -9.416930 -36.285198 5.705120 31.251801 0.000000 -26.690300 0.000000 6.786300 8.869430 -1.873750 30.185900 0.115122 -4.580950 41.792301 1.229120 23.424900 0.000000 25.173201 0.000000 -4.131920 -1.306330 -8.971400 10.909003 16.031732 12.815696 0.000000 0.000000 2.083390 -8.325994 7.919798 5.599860 0.000000 0.000000 -10.527840 10.867334 12.596656 8.159298 0.000000 0.000000 7.191130 14.717928 -22.329901 9.689378 0.000000 0.000000 -13.188410 
-21.489900 9.268962 44.142907 -172.304181 13.394505 178.739324 8.007198 0.570140 -23.254818 -5.331565 -0.261103 34.491810 0.000000 0.000000 0.000000 -15.699465 10.057753 -2.548091 -6.947578 12.618904 -60.732156 -27.286200 -0.225827 -9.438680 -36.171799 5.162140 31.777700 0.000000 -27.260799 0.000000 7.310460 8.742770 -1.093690 30.234301 0.184925 -4.602270 41.911800 1.231340 23.794100 0.000000 25.192801 0.000000 -3.813420 -1.557770 -8.499400 10.783653 15.764297 12.731545 0.000000 0.000000 2.152680 -8.256870 7.923854 5.595765 0.000000 0.000000 -10.482360 10.789354 12.378507 8.220725 0.000000 0.000000 7.185560 14.768392 -22.412288 9.611258 0.000000 0.000000 -13.162340 
-21.497394 9.269041 44.142723 -172.389445 13.032703 178.652808 8.000740 0.612387 -23.304011 -5.470829 -0.256253 34.577795 0.000000 0.000000 0.000000 -15.457698 9.845143 -2.796075 -6.742768 12.510023 -60.816296 -27.239300 -0.378998 -9.404450 -36.102901 4.521490 32.165501 0.000000 -27.800301 0.000000 7.881740 8.386960 -0.596300 30.249399 0.281714 -4.565580 41.976700 1.237770 24.122499 0.000000 25.204399 0.000000 -3.779820 -1.388980 -8.552710 10.690756 15.682159 12.696457 0.000000 0.000000 2.113420 -8.129314 7.723333 5.705699 0.000000 0.000000 -10.522730 10.689834 12.126116 8.286283 0.000000 0.000000 7.164600 14.840724 -22.491615 9.506109 0.000000 0.000000 -13.125440 
-21.504806 9.269032 44.141919 -172.466504 12.629560 178.565906 7.981873 0.640224 -23.333242 -5.561111 -0.245666 34.602864 0.000000 0.000000 0.000000 -15.228472 9.604437 -3.003146 -6.436401 12.344716 -60.891902 -27.218700 -0.590459 -9.302870 -36.019600 3.931860 32.299702 0.000000 -28.499300 0.000000 8.310740 8.266230 0.101797 30.258301 0.269429 -4.546700 42.030102 1.248480 24.476101 0.000000 25.237600 0.000000 -3.758540 -1.365800 -8.508880 10.566716 15.388859 12.654931 0.000000 0.000000 2.060800 -8.044872 7.649583 5.783977 0.000000 0.000000 -10.541390 10.587453 11.779847 8.381133 0.000000 0.000000 7.088250 14.877456 -22.528829 9.447811 0.000000 0.000000 -13.115710 
-21.512772 9.267205 44.141020 -172.534405 12.244057 178.447924 8.070868 0.860849 -23.110559 -5.994518 -0.356123 34.243952 0.000000 0.000000 0.000000 -14.864094 9.398911 -2.886801 -6.271003 12.416924 -61.203733 -27.113800 -0.646358 -9.134590 -35.834599 3.429410 32.396500 0.000000 -29.292601 0.000000 8.803810 8.055030 0.711131 30.534901 0.226134 -4.304330 41.938801 1.265570 24.777100 0.000000 25.314100 0.000000 -3.719530 -1.382470 -8.483520 10.448945 15.076596 12.653696 0.000000 0.000000 2.009550 -7.984379 7.600733 5.807226 0.000000 0.000000 -10.562750 10.545116 11.672756 8.520716 0.000000 0.000000 7.025690 15.008920 -22.753874 9.258795 0.000000 0.000000 -13.071480 
-21.521065 9.267540 44.142198 -172.592772 11.886712 178.389689 8.068954 0.870354 -23.100421 -6.074176 -0.379035 34.216352 0.000000 0.000000 0.000000 -14.739773 9.226646 -3.024275 -6.015259 12.251828 -61.303574 -27.101900 -0.779144 -9.123750 -35.773998 2.969810 32.339001 0.000000 -30.169500 0.000000 9.368270 7.920170 1.309100 30.520500 0.244131 -4.252660 41.967499 1.279380 24.996599 0.000000 25.410101 0.000000 -3.753820 -1.361620 -8.491550 10.340262 14.871555 12.587396 0.000000 0.000000 1.966800 -7.893985 7.515453 5.880330 0.000000 0.000000 -10.565500 10.463751 11.451272 8.573298 0.000000 0.000000 6.971940 15.084061 -22.845003 9.194597 0.000000 0.000000 -13.069280 
-21.530194 9.268454 44.143231 -172.653374 11.500533 178.330260 8.076611 0.871520 -23.092426 -6.212644 -0.434755 34.193721 0.000000 0.000000 0.000000 -14.609370 9.083863 -3.138968 -5.794284 12.135021 -61.417838 -27.060801 -0.861943 -9.076240 -35.703400 2.535670 32.156502 0.000000 -31.148500 0.000000 9.782700 7.692900 1.328010 30.496700 0.262132 -4.220560 42.015701 1.318760 25.173100 0.000000 25.464300 0.000000 -3.708170 -1.311650 -8.464900 10.212862 14.588339 12.514481 0.000000 0.000000 1.919870 -7.802723 7.461097 5.969201 0.000000 0.000000 -10.572390 10.388496 11.279103 8.602715 0.000000 0.000000 6.972250 15.188132 -22.992619 9.099670 0.000000 0.000000 -13.055350 
